# xmcd CD database file
#
# Track frame offsets:
#	150
#	11588
#	24310
#	37733
#	51183
#	69380
#	84604
#	95596
#	107553
#	120249
#	133862
#	146286
#	160625
#	181438
#	191751
#	209737
#
# Disc length: 2950 seconds
#
# Revision: 4
# Processed by: cddbd v1.5.2PL0 Copyright (c) Steve Scherf et al.
# Submitted via: CDex 1.70beta2
#
DISCID=d20b8410
DTITLE=Ernst Mosch und seine Original Egerländer Musikanten - Rosen aus Böhmen CD 1
DYEAR=2004
DGENRE=Blasmusik
TTITLE0=Theodorus (Marsch)
TTITLE1=Ach, ich liebe dich (Polka)
TTITLE2=Wenn eine Frau die Wahrheit spricht (Walzer)
TTITLE3=Böhmisch ist so schön (Polka)
TTITLE4=Tenorhornparade (Polka)
TTITLE5=Du lieber Mond (Polka Potourri)
TTITLE6=Berticka (Walzer)
TTITLE7=Alte Liebe (Polka)
TTITLE8=Rosen so rot (Walzer)
TTITLE9=So schön kann nur die erste Liebe sein (Polka)
TTITLE10=Trompetenscherze (Marsch)
TTITLE11=Als ich noch ein kleiner Junge war (Walzer)
TTITLE12=Das ist Musik (Polka Potourri)
TTITLE13=Böhmisches Herz (Marsch)
TTITLE14=Egerländer Jubiläums Marsch 
TTITLE15=Abendläuten (Walzer)
EXTD=YEAR: 2004
EXTT0=
EXTT1=
EXTT2=
EXTT3=
EXTT4=
EXTT5=
EXTT6=
EXTT7=
EXTT8=
EXTT9=
EXTT10=
EXTT11=
EXTT12=
EXTT13=
EXTT14=
EXTT15=
PLAYORDER=
